HIERARCHY
ROOT hip
{
  OFFSET 3.11584 82.8661 71.8254
  CHANNELS 6 Xposition Yposition Zposition Zrotation Xrotation Yrotation
  JOINT abdomen
  {
    OFFSET 0 20.6881 -0.73152
    CHANNELS 3 Zrotation Xrotation Yrotation
    JOINT chest
    {
      OFFSET 0 11.7043 -0.48768
      CHANNELS 3 Zrotation Xrotation Yrotation
      JOINT neck
      {
        OFFSET 0 22.1894 -2.19456
        CHANNELS 3 Zrotation Xrotation Yrotation
        JOINT head
        {
          OFFSET -0.24384 7.07133 1.2192
          CHANNELS 3 Zrotation Xrotation Yrotation
          JOINT leftEye
          {
            OFFSET 4.14528 8.04674 8.04672
            CHANNELS 3 Zrotation Xrotation Yrotation
            End Site
            {
              OFFSET 1 0 0
            }
          }
          JOINT rightEye
          {
            OFFSET -3.6576 8.04674 8.04672
            CHANNELS 3 Zrotation Xrotation Yrotation
            End Site
            {
              OFFSET 1 0 0
            }
          }
        }
      }
      JOINT rCollar
      {
        OFFSET -2.68224 19.2634 -4.8768
        CHANNELS 3 Zrotation Xrotation Yrotation
        JOINT rShldr
        {
          OFFSET -8.77824 -1.95073 1.46304
          CHANNELS 3 Zrotation Xrotation Yrotation
          JOINT rForeArm
          {
            OFFSET -28.1742 -1.7115 0.48768
            CHANNELS 3 Zrotation Xrotation Yrotation
            JOINT rHand
            {
              OFFSET -22.5879 0.773209 7.07136
              CHANNELS 3 Zrotation Xrotation Yrotation
              JOINT rThumb1
              {
                OFFSET -1.2192 -0.487915 3.41376
                CHANNELS 3 Zrotation Xrotation Yrotation
                JOINT rThumb2
                {
                  OFFSET -3.37035 -0.52449 3.41376
                  CHANNELS 3 Zrotation Xrotation Yrotation
                  End Site
                  {
                    OFFSET -1.78271 -1.18214 1.43049
                  }
                }
              }
              JOINT rIndex1
              {
                OFFSET -7.75947 0.938293 5.60832
                CHANNELS 3 Zrotation Xrotation Yrotation
                JOINT rIndex2
                {
                  OFFSET -2.54057 -0.884171 1.56538
                  CHANNELS 3 Zrotation Xrotation Yrotation
                  End Site
                  {
                    OFFSET -1.62519 -0.234802 1.16502
                  }
                }
              }
              JOINT rMid1
              {
                OFFSET -8.24714 1.18213 3.41376
                CHANNELS 3 Zrotation Xrotation Yrotation
                JOINT rMid2
                {
                  OFFSET -3.10165 -0.590103 1.0647
                  CHANNELS 3 Zrotation Xrotation Yrotation
                  End Site
                  {
                    OFFSET -2.48547 -0.328903 0.83742
                  }
                }
              }
              JOINT rRing1
              {
                OFFSET -8.82822 0.546677 1.51678
                CHANNELS 3 Zrotation Xrotation Yrotation
                JOINT rRing2
                {
                  OFFSET -2.60934 -0.819778 -0.0198488
                  CHANNELS 3 Zrotation Xrotation Yrotation
                  End Site
                  {
                    OFFSET -2.33842 -0.294052 0.168128
                  }
                }
              }
              JOINT rPinky1
              {
                OFFSET -8.27202 -0.0477905 -0.4584
                CHANNELS 3 Zrotation Xrotation Yrotation
                JOINT rPinky2
                {
                  OFFSET -1.82734 -0.647385 -0.700984
                  CHANNELS 3 Zrotation Xrotation Yrotation
                  End Site
                  {
                    OFFSET -1.69225 -0.51767 -0.607171
                  }
                }
              }
            }
          }
        }
      }
      JOINT lCollar
      {
        OFFSET 2.68224 19.2634 -4.8768
        CHANNELS 3 Zrotation Xrotation Yrotation
        JOINT lShldr
        {
          OFFSET 8.77824 -1.95073 1.46304
          CHANNELS 3 Zrotation Xrotation Yrotation
          JOINT lForeArm
          {
            OFFSET 28.1742 -1.7115 0.48768
            CHANNELS 3 Zrotation Xrotation Yrotation
            JOINT lHand
            {
              OFFSET 22.5879 0.773209 7.07136
              CHANNELS 3 Zrotation Xrotation Yrotation
              JOINT lThumb1
              {
                OFFSET 1.2192 -0.487915 3.41376
                CHANNELS 3 Zrotation Xrotation Yrotation
                JOINT lThumb2
                {
                  OFFSET 3.37035 -0.52449 3.41376
                  CHANNELS 3 Zrotation Xrotation Yrotation
                  End Site
                  {
                    OFFSET 1.78271 -1.18214 1.43049
                  }
                }
              }
              JOINT lIndex1
              {
                OFFSET 7.75947 0.938293 5.60832
                CHANNELS 3 Zrotation Xrotation Yrotation
                JOINT lIndex2
                {
                  OFFSET 2.54057 -0.884171 1.56538
                  CHANNELS 3 Zrotation Xrotation Yrotation
                  End Site
                  {
                    OFFSET 1.62519 -0.234802 1.16502
                  }
                }
              }
              JOINT lMid1
              {
                OFFSET 8.24714 1.18213 3.41376
                CHANNELS 3 Zrotation Xrotation Yrotation
                JOINT lMid2
                {
                  OFFSET 3.10165 -0.590103 1.0647
                  CHANNELS 3 Zrotation Xrotation Yrotation
                  End Site
                  {
                    OFFSET 2.48547 -0.328903 0.83742
                  }
                }
              }
              JOINT lRing1
              {
                OFFSET 8.82822 0.546677 1.51678
                CHANNELS 3 Zrotation Xrotation Yrotation
                JOINT lRing2
                {
                  OFFSET 2.60934 -0.819778 -0.0198488
                  CHANNELS 3 Zrotation Xrotation Yrotation
                  End Site
                  {
                    OFFSET 2.33842 -0.294052 0.168128
                  }
                }
              }
              JOINT lPinky1
              {
                OFFSET 8.27202 -0.0477905 -0.4584
                CHANNELS 3 Zrotation Xrotation Yrotation
                JOINT lPinky2
                {
                  OFFSET 1.82734 -0.647385 -0.700984
                  CHANNELS 3 Zrotation Xrotation Yrotation
                  End Site
                  {
                    OFFSET 1.69225 -0.51767 -0.607171
                  }
                }
              }
            }
          }
        }
      }
    }
  }
  JOINT rButtock
  {
    OFFSET -8.77824 4.35084 1.2192
    CHANNELS 3 Zrotation Xrotation Yrotation
    JOINT rThigh
    {
      OFFSET 0 -1.70687 -2.19456
      CHANNELS 3 Zrotation Xrotation Yrotation
      JOINT rShin
      {
        OFFSET 0 -36.8199 0.73152
        CHANNELS 3 Zrotation Xrotation Yrotation
        JOINT rFoot
        {
          OFFSET 0.73152 -45.1104 -5.12064
          CHANNELS 3 Zrotation Xrotation Yrotation
          End Site
          {
            OFFSET -1.1221 -3.69964 12.103
          }
        }
      }
    }
  }
  JOINT lButtock
  {
    OFFSET 8.77824 4.35084 1.2192
    CHANNELS 3 Zrotation Xrotation Yrotation
    JOINT lThigh
    {
      OFFSET 0 -1.70687 -2.19456
      CHANNELS 3 Zrotation Xrotation Yrotation
      JOINT lShin
      {
        OFFSET 0 -36.8199 0.73152
        CHANNELS 3 Zrotation Xrotation Yrotation
        JOINT lFoot
        {
          OFFSET -0.73152 -45.1104 -5.12064
          CHANNELS 3 Zrotation Xrotation Yrotation
          End Site
          {
            OFFSET 1.1221 -3.69964 12.103
          }
        }
      }
    }
  }
}
MOTION
Frames:	7
Frame Time:	0.00833333
-0.449821 81.5294 125.795 5.25238 -8.28115 170.484 -11.119 -5.71532 -6.51747 1.57978 6.04913 -1.8588 -3.72389 17.6889 -2.44958 12.1803 -43.4153 -1.04969 -0 0 0 -0 0 0 -1.09807e-013 -2.14625e-014 5.49143e-014 84.2603 0.501931 -5.42227 -11.8543 -5.34699 21.3281 -1.48799 32.4043 5.11785 -5.95145e-010 -3.96657e-010 2.23154e-009 -9.68296e-010 -7.1719e-010 3.86702e-009 -5.95138e-010 -3.96657e-010 2.23154e-009 7.73091 5.47488 0.417314 -5.95147e-010 -3.96657e-010 2.23154e-009 2.90554 0.965183 0.102902 -5.95134e-010 -3.96657e-010 2.23154e-009 10.2786 0.731801 0.0259123 -5.95148e-010 -3.96654e-010 2.23155e-009 2.22167 -0.733487 -0.20892 -1.09956e-013 -2.14761e-014 5.47652e-014 -76.8109 18.6436 -11.1944 9.78434 -4.01131 -17.3976 0.901069 25.9122 -3.9152 5.88581e-010 3.59848e-010 5.19989e-011 1.01661e-009 6.13612e-010 7.74767e-011 5.88575e-010 3.59852e-010 5.20021e-011 -7.73091 5.47488 -0.417314 5.88576e-010 3.59849e-010 5.19893e-011 -2.90554 0.965183 -0.102902 5.8857e-010 3.59849e-010 5.19949e-011 -10.2786 0.731801 -0.0259123 5.88589e-010 3.59849e-010 5.19925e-011 -2.22167 -0.733487 0.20892 -2.03217e-016 0 -3.88251e-019 -15.1615 -41.3103 -11.0159 -0.411904 43.9468 1.07649 -0.801155 -10.729 -0.949619 2.03217e-016 0 3.88251e-019 -6.09572 -20.6466 3.27801 -0.208264 29.2639 -0.984844 0.162343 -2.63221 -21.567 
-0.472506 81.6954 124.602 5.00319 -8.3872 169.706 -10.9599 -5.7555 -6.86795 1.74418 6.03462 -1.95055 -3.80217 17.6462 -2.51521 12.337 -43.4388 -1.12967 -0 0 0 -0 0 0 -6.32197e-014 5.98336e-014 -6.06499e-014 84.2575 -0.509881 -5.73449 -11.6882 -5.23297 21.0069 -1.55672 33.0454 5.24548 -2.40734e-011 -3.63436e-010 1.37197e-009 -8.01748e-012 -6.43097e-010 2.36824e-009 -2.4067e-011 -3.63436e-010 1.37196e-009 7.73091 5.47488 0.417314 -2.40752e-011 -3.63437e-010 1.37197e-009 2.90554 0.965183 0.102902 -2.40638e-011 -3.63437e-010 1.37197e-009 10.2786 0.731801 0.0259123 -2.40769e-011 -3.63434e-010 1.37198e-009 2.22167 -0.733487 -0.20892 -6.33376e-014 5.98214e-014 -6.07974e-014 -76.3054 20.0582 -11.9572 10.1139 -4.21201 -18.0133 0.821634 24.8232 -3.72793 4.86018e-010 5.16178e-010 1.5951e-010 8.39345e-010 8.8605e-010 2.65083e-010 4.86012e-010 5.16185e-010 1.59514e-010 -7.73091 5.47488 -0.417314 4.86015e-010 5.16181e-010 1.59502e-010 -2.90554 0.965183 -0.102902 4.86008e-010 5.16181e-010 1.59506e-010 -10.2786 0.731801 -0.0259123 4.86024e-010 5.16182e-010 1.59504e-010 -2.22167 -0.733487 0.20892 -2.03217e-016 0 -3.88251e-019 -15.1327 -40.9491 -10.4459 -0.312594 39.3614 1.02499 -0.873705 -10.5491 -1.12129 2.03217e-016 0 3.88251e-019 -5.83229 -19.317 3.05016 -0.193815 28.057 -1.04615 0.289471 -2.42937 -21.8945 
-0.432771 81.8492 123.408 4.75435 -8.4974 168.936 -10.7903 -5.82584 -7.18125 1.91448 6.0438 -2.03447 -3.9734 17.5706 -2.57333 12.6263 -43.4151 -1.14695 -0 0 0 -0 0 0 6.49021e-015 1.96553e-013 -2.40203e-013 84.2413 -1.70612 -6.07669 -11.4984 -5.10359 20.6422 -1.63527 33.7482 5.38795 1.09915e-009 -3.64248e-010 -1.45698e-010 1.88652e-009 -6.1433e-010 -2.80749e-010 1.09916e-009 -3.64248e-010 -1.45704e-010 7.73091 5.47488 0.417314 1.09915e-009 -3.64248e-010 -1.45695e-010 2.90554 0.965183 0.102902 1.09916e-009 -3.64248e-010 -1.45693e-010 10.2786 0.731801 0.0259123 1.09915e-009 -3.64245e-010 -1.45687e-010 2.22167 -0.733487 -0.20892 6.43438e-015 1.96543e-013 -2.40365e-013 -75.7896 21.4649 -12.6866 10.4547 -4.42431 -18.6537 0.751582 23.8313 -3.55937 2.74774e-010 8.45993e-010 5.48388e-010 4.79928e-010 1.46299e-009 9.40241e-010 2.74768e-010 8.46002e-010 5.48392e-010 -7.73091 5.47488 -0.417314 2.74774e-010 8.45998e-010 5.48384e-010 -2.90554 0.965183 -0.102902 2.74765e-010 8.45999e-010 5.48385e-010 -10.2786 0.731801 -0.0259123 2.74778e-010 8.45999e-010 5.48383e-010 -2.22167 -0.733487 0.20892 -2.03217e-016 0 -3.88251e-019 -15.0876 -40.3083 -9.73303 -0.235459 34.3935 0.981986 -0.804661 -9.92939 -0.885269 2.03217e-016 0 3.88251e-019 -5.49731 -17.8842 2.99524 -0.165452 26.611 -1.09185 0.502671 -2.02023 -22.3423 
-0.336196 81.9828 122.195 4.52891 -8.59324 168.186 -10.6229 -5.93259 -7.46452 2.06613 6.08038 -2.11266 -4.14883 17.5046 -2.6306 12.8876 -43.393 -1.17144 -0 0 0 -0 0 0 7.04192e-014 3.30216e-013 -3.89058e-013 84.201 -2.97141 -6.4385 -11.2958 -4.96707 20.2548 -1.72202 34.496 5.5422 2.18794e-009 -3.57811e-010 -1.66746e-009 3.72212e-009 -5.743e-010 -2.93566e-009 2.18795e-009 -3.57811e-010 -1.66747e-009 7.73091 5.47488 0.417314 2.18794e-009 -3.57811e-010 -1.66745e-009 2.90554 0.965183 0.102902 2.18795e-009 -3.57811e-010 -1.66745e-009 10.2786 0.731801 0.0259123 2.18794e-009 -3.57808e-010 -1.66745e-009 2.22167 -0.733487 -0.20892 7.0431e-014 3.30209e-013 -3.8924e-013 -75.3212 22.7698 -13.3303 10.7836 -4.63298 -19.277 0.692277 22.9509 -3.41174 -3.48646e-011 1.057e-009 9.4723e-010 -4.85727e-011 1.83624e-009 1.63423e-009 -3.48715e-011 1.05701e-009 9.47236e-010 -7.73091 5.47488 -0.417314 -3.48624e-011 1.05701e-009 9.47231e-010 -2.90554 0.965183 -0.102902 -3.48723e-011 1.05701e-009 9.47229e-010 -10.2786 0.731801 -0.0259123 -3.48634e-011 1.05701e-009 9.47227e-010 -2.22167 -0.733487 0.20892 -2.03217e-016 0 -3.88251e-019 -15.0575 -39.5014 -8.98615 -0.179136 29.5578 0.953382 -0.699144 -9.18971 -0.531227 2.03217e-016 0 3.88251e-019 -5.20764 -16.3835 2.84558 -0.134746 25.0751 -1.12375 0.739409 -1.58175 -22.6553 
-0.279599 82.1186 120.961 4.35095 -8.65652 167.47 -10.4706 -6.08192 -7.72494 2.17455 6.14808 -2.18724 -4.23958 17.4901 -2.69372 12.9604 -43.4215 -1.27318 -0 0 0 -0 0 0 9.96642e-014 4.02343e-013 -4.12528e-013 84.1296 -4.1907 -6.80858 -11.0919 -4.83185 19.8657 -1.81501 35.272 5.70494 2.65572e-009 -3.02846e-010 -2.53933e-009 4.50558e-009 -4.66416e-010 -4.45223e-009 2.65572e-009 -3.02846e-010 -2.53933e-009 7.73091 5.47488 0.417314 2.65571e-009 -3.02847e-010 -2.53932e-009 2.90554 0.965183 0.102902 2.65572e-009 -3.02846e-010 -2.53932e-009 10.2786 0.731801 0.0259123 2.65571e-009 -3.02843e-010 -2.53931e-009 2.22167 -0.733487 -0.20892 9.97234e-014 4.02338e-013 -4.12727e-013 -74.9676 23.8813 -13.8303 11.079 -4.82338 -19.8412 0.645004 22.1963 -3.28731 -4.32609e-010 8.56915e-010 1.08464e-009 -7.33095e-010 1.4976e-009 1.87831e-009 -4.32617e-010 8.56927e-010 1.08464e-009 -7.73091 5.47488 -0.417314 -4.32606e-010 8.56923e-010 1.08464e-009 -2.90554 0.965183 -0.102902 -4.32616e-010 8.56924e-010 1.08464e-009 -10.2786 0.731801 -0.0259123 -4.32609e-010 8.56925e-010 1.08463e-009 -2.22167 -0.733487 0.20892 -2.03217e-016 0 -3.88251e-019 -15.0606 -38.6457 -8.30468 -0.139222 25.3695 0.940966 -0.646467 -8.65074 -0.34585 2.03217e-016 0 3.88251e-019 -5.05159 -14.8481 2.34159 -0.112853 23.5987 -1.14353 0.926112 -1.28648 -22.5767 
-0.270488 82.2441 119.671 4.24764 -8.68692 166.746 -10.3439 -6.28845 -7.98492 2.22491 6.26551 -2.26486 -4.20263 17.561 -2.77192 12.7478 -43.5374 -1.50442 -0 0 0 -0 0 0 7.36732e-014 3.95528e-013 -2.4483e-013 84.0163 -5.33499 -7.19748 -10.881 -4.69473 19.4636 -1.91581 36.0825 5.8782 2.24588e-009 -1.67368e-010 -2.47864e-009 3.80252e-009 -2.42742e-010 -4.33603e-009 2.24588e-009 -1.6737e-010 -2.47865e-009 7.73091 5.47488 0.417314 2.24587e-009 -1.6737e-010 -2.47864e-009 2.90554 0.965183 0.102902 2.24588e-009 -1.67369e-010 -2.47864e-009 10.2786 0.731801 0.0259123 2.24587e-009 -1.67365e-010 -2.47863e-009 2.22167 -0.733487 -0.20892 7.3757e-014 3.95525e-013 -2.45041e-013 -74.7649 24.7793 -14.1862 11.3366 -4.99317 -20.3345 0.609782 21.601 -3.19043 -1.02561e-009 3.54276e-011 8.83832e-010 -1.75985e-009 8.47246e-011 1.54183e-009 -1.02562e-009 3.54384e-011 8.83838e-010 -7.73091 5.47488 -0.417314 -1.02561e-009 3.54337e-011 8.83834e-010 -2.90554 0.965183 -0.102902 -1.02562e-009 3.5435e-011 8.83831e-010 -10.2786 0.731801 -0.0259123 -1.02561e-009 3.54366e-011 8.83826e-010 -2.22167 -0.733487 0.20892 -2.03217e-016 0 -3.88251e-019 -15.1601 -37.68 -7.65919 -0.115185 21.8072 0.941405 -0.672516 -8.55052 -0.455871 2.03217e-016 0 3.88251e-019 -5.06918 -13.2392 1.30862 -0.100329 22.1403 -1.14527 1.04879 -1.16516 -21.9744 
-0.21058 82.3223 118.313 4.20094 -8.69302 166.023 -10.2344 -6.54443 -8.23402 2.23336 6.42481 -2.34241 -4.09144 17.6872 -2.85928 12.3513 -43.7061 -1.81798 -0 0 0 -0 0 0 1.21426e-014 3.41563e-013 5.00254e-014 83.8665 -6.46461 -7.6075 -10.6596 -4.55289 19.0429 -2.02649 36.9327 6.06421 1.30466e-009 1.96159e-011 -1.87029e-009 2.19914e-009 5.55923e-011 -3.26041e-009 1.30466e-009 1.96116e-011 -1.8703e-009 7.73091 5.47488 0.417314 1.30465e-009 1.96118e-011 -1.87029e-009 2.90554 0.965183 0.102902 1.30466e-009 1.96126e-011 -1.87029e-009 10.2786 0.731801 0.0259123 1.30465e-009 1.96171e-011 -1.87028e-009 2.22167 -0.733487 -0.20892 1.22404e-014 3.41562e-013 4.98018e-014 -74.6915 25.5166 -14.4131 11.5689 -5.15027 -20.7793 0.582845 21.1477 -3.1168 -1.78273e-009 -1.20745e-009 4.91031e-010 -3.07258e-009 -2.05573e-009 8.76665e-010 -1.78275e-009 -1.20744e-009 4.91037e-010 -7.73091 5.47488 -0.417314 -1.78273e-009 -1.20745e-009 4.91032e-010 -2.90554 0.965183 -0.102902 -1.78274e-009 -1.20745e-009 4.91028e-010 -10.2786 0.731801 -0.0259123 -1.78273e-009 -1.20745e-009 4.91023e-010 -2.22167 -0.733487 0.20892 -2.03217e-016 0 -3.88251e-019 -15.3357 -36.5724 -7.02157 -0.104565 18.6491 0.949966 -0.727861 -8.66711 -0.691376 2.03217e-016 0 3.88251e-019 -5.1525 -11.5488 -0.0683899 -0.0897248 20.6474 -1.13123 1.1413 -1.12915 -21.006 
